<svg id="Layer_1" data-name="Layer 1" xmlns="http://www.w3.org/2000/svg" viewBox="0 0 82.61 90"><defs><style>.cls-1{fill:#fff}</style></defs><title>robot</title><path class="cls-1" d="M60.76 72.13a1.33 1.33 0 0 1-1.37 1.28h-11a1.33 1.33 0 0 1-1.37-1.28v-6a1.33 1.33 0 0 1 1.37-1.28h11a1.33 1.33 0 0 1 1.37 1.28v6zM61.69 86.15L60.1 75.17H47.78L46.2 86.15h-2.98V90h21.37v-3.85h-2.9zM35.57 72.13a1.33 1.33 0 0 1-1.37 1.28H23.25a1.33 1.33 0 0 1-1.37-1.28v-6a1.33 1.33 0 0 1 1.38-1.28h10.93a1.33 1.33 0 0 1 1.38 1.28v6zM36.47 86.15l-1.59-10.98H22.56l-1.59 10.98h-2.94V90h21.38v-3.85h-2.94zM57.85 63.12v-4.65H64a1.28 1.28 0 0 0 1.28-1.28v-7.54A1.28 1.28 0 0 0 64 48.37H18.57a1.28 1.28 0 0 0-1.28 1.28v7.53a1.28 1.28 0 0 0 1.28 1.28h6.21v4.65h7.89v-4.64H50v4.65h7.89zM54.66 0H28.15a1.5 1.5 0 0 0-1.5 1.5v15.41a1.5 1.5 0 0 0 1.5 1.5h26.51a1.5 1.5 0 0 0 1.5-1.5V1.5a1.5 1.5 0 0 0-1.5-1.5zM34.34 11.37a3.79 3.79 0 1 1 3.79-3.79 3.79 3.79 0 0 1-3.79 3.79zm14.13 0a3.79 3.79 0 1 1 3.79-3.79 3.8 3.8 0 0 1-3.79 3.79zM25.67 14.4h-1a1.28 1.28 0 0 1-1.28-1.28V5.3A1.28 1.28 0 0 1 24.67 4h1v10.4zM22.64 12.69h-.7a1.28 1.28 0 0 1-1.28-1.28V7a1.28 1.28 0 0 1 1.28-1.28h.7v7zM56.94 14.4h1a1.28 1.28 0 0 0 1.28-1.28V5.3A1.28 1.28 0 0 0 57.93 4h-1v10.4zM60 12.69h.7a1.28 1.28 0 0 0 1.3-1.28V7a1.28 1.28 0 0 0-1.28-1.28H60v7z"/><path class="cls-1" d="M78.18 50.58V36.21A12.18 12.18 0 0 0 66 24h-.68v-.74A1.28 1.28 0 0 0 64 22H18.57a1.28 1.28 0 0 0-1.28 1.28V24h-.7A12.18 12.18 0 0 0 4.43 36.21v14.37A7.26 7.26 0 0 0 0 57.25h2.32a4.93 4.93 0 0 1 9.86 0h2.31a7.25 7.25 0 0 0-4.3-6.61V36.21a6.4 6.4 0 0 1 6.4-6.4h.69v14.72a1.28 1.28 0 0 0 1.28 1.28H64a1.28 1.28 0 0 0 1.28-1.28V29.8H66a6.41 6.41 0 0 1 6.4 6.4v14.43a7.25 7.25 0 0 0-4.3 6.61h2.31a4.93 4.93 0 0 1 9.87 0h2.31a7.25 7.25 0 0 0-4.41-6.66zm-44-9.48H31.6v-8.7h2.57v8.7zm4.21 0h-2.58v-8.7h2.57v8.7zm4.21 0H40v-8.7h2.57v8.7zm4.2 0h-2.57v-8.7h2.57v8.7zm4.21 0h-2.58v-8.7H51v8.7z"/></svg>