<svg id="Layer_1" data-name="Layer 1" xmlns="http://www.w3.org/2000/svg" viewBox="0 0 82.61 90"><defs><style>.cls-1{fill:#fff;}</style></defs><title>robot</title><path class="cls-1" d="M60.76,72.13a1.33,1.33,0,0,1-1.37,1.28h-11a1.33,1.33,0,0,1-1.37-1.28v-6a1.33,1.33,0,0,1,1.37-1.28h11a1.33,1.33,0,0,1,1.37,1.28v6Z"/><polygon class="cls-1" points="61.69 86.15 60.1 75.17 47.78 75.17 46.2 86.15 43.22 86.15 43.22 90 64.59 90 64.59 86.15 61.69 86.15"/><path class="cls-1" d="M35.57,72.13a1.33,1.33,0,0,1-1.37,1.28H23.25a1.33,1.33,0,0,1-1.37-1.28v-6a1.33,1.33,0,0,1,1.38-1.28H34.19a1.33,1.33,0,0,1,1.38,1.28v6h0Z"/><polygon class="cls-1" points="36.47 86.15 34.88 75.17 22.56 75.17 20.97 86.15 18.03 86.15 18.03 90 39.41 90 39.41 86.15 36.47 86.15"/><path class="cls-1" d="M57.85,63.12V58.47H64a1.28,1.28,0,0,0,1.28-1.28V49.65A1.28,1.28,0,0,0,64,48.37H18.57a1.28,1.28,0,0,0-1.28,1.28v7.53a1.28,1.28,0,0,0,1.28,1.28h6.21v4.65h7.89V58.47H50v4.65h7.89Z"/><path class="cls-1" d="M54.66,0H28.15a1.5,1.5,0,0,0-1.5,1.5V16.91a1.5,1.5,0,0,0,1.5,1.5H54.66a1.5,1.5,0,0,0,1.5-1.5V1.5A1.5,1.5,0,0,0,54.66,0ZM34.34,11.37a3.79,3.79,0,1,1,3.79-3.79A3.79,3.79,0,0,1,34.34,11.37Zm14.13,0a3.79,3.79,0,1,1,3.79-3.79A3.8,3.8,0,0,1,48.47,11.37Z"/><path class="cls-1" d="M25.67,14.4h-1a1.28,1.28,0,0,1-1.28-1.28V5.3A1.28,1.28,0,0,1,24.67,4h1V14.4Z"/><path class="cls-1" d="M22.64,12.69h-0.7a1.28,1.28,0,0,1-1.28-1.28V7a1.28,1.28,0,0,1,1.28-1.28h0.7v7Z"/><path class="cls-1" d="M56.94,14.4h1a1.28,1.28,0,0,0,1.28-1.28V5.3A1.28,1.28,0,0,0,57.93,4h-1V14.4Z"/><path class="cls-1" d="M60,12.69h0.7A1.28,1.28,0,0,0,62,11.41V7a1.28,1.28,0,0,0-1.28-1.28H60v7Z"/><path class="cls-1" d="M78.18,50.58V36.21A12.18,12.18,0,0,0,66,24H65.32V23.26A1.28,1.28,0,0,0,64,22H18.57a1.28,1.28,0,0,0-1.28,1.28V24H16.59A12.18,12.18,0,0,0,4.43,36.21V50.58A7.26,7.26,0,0,0,0,57.25H2.32a4.93,4.93,0,0,1,9.86,0h2.31a7.25,7.25,0,0,0-4.3-6.61V36.21a6.4,6.4,0,0,1,6.4-6.4h0.69V44.53a1.28,1.28,0,0,0,1.28,1.28H64a1.28,1.28,0,0,0,1.28-1.28V29.8H66a6.41,6.41,0,0,1,6.4,6.4V50.63a7.25,7.25,0,0,0-4.3,6.61h2.31a4.93,4.93,0,0,1,9.87,0h2.31A7.25,7.25,0,0,0,78.18,50.58Zm-44-9.48H31.6v-8.7h2.57v8.7Zm4.21,0H35.81v-8.7h2.57v8.7Zm4.21,0H40v-8.7h2.57v8.7Zm4.2,0H44.23v-8.7h2.57v8.7Zm4.21,0H48.43v-8.7H51v8.7Z"/></svg>